<?xml version="1.0" encoding="UTF-8" standalone="no"?>
<!-- Generator: Adobe Illustrator 17.0.0, SVG Export Plug-In . SVG Version: 6.00 Build 0)  -->

<svg
   xmlns:dc="http://purl.org/dc/elements/1.1/"
   xmlns:cc="http://creativecommons.org/ns#"
   xmlns:rdf="http://www.w3.org/1999/02/22-rdf-syntax-ns#"
   xmlns:svg="http://www.w3.org/2000/svg"
   xmlns="http://www.w3.org/2000/svg"
   xmlns:sodipodi="http://sodipodi.sourceforge.net/DTD/sodipodi-0.dtd"
   xmlns:inkscape="http://www.inkscape.org/namespaces/inkscape"
   version="1.1"
   x="0px"
   y="0px"
   width="792"
   height="612"
   viewBox="0 0 792 612"
   enable-background="new 0 0 612 792"
   xml:space="preserve"
   id="svg2"
   inkscape:version="0.91 r13725"
   sodipodi:docname="logo-USUC-2016-krivky.sk.svg"
   inkscape:export-filename="/home/python/www/upracmeslovensko.sk/src/loga/logo-USUC-2016.sk.png"
   inkscape:export-xdpi="90"
   inkscape:export-ydpi="90"><metadata
     id="metadata254"><rdf:RDF><cc:Work
         rdf:about=""><dc:format>image/svg+xml</dc:format><dc:type
           rdf:resource="http://purl.org/dc/dcmitype/StillImage" /><dc:title></dc:title></cc:Work></rdf:RDF></metadata><defs
     id="defs252" /><sodipodi:namedview
     pagecolor="#ffffff"
     bordercolor="#666666"
     borderopacity="1"
     objecttolerance="10"
     gridtolerance="10"
     guidetolerance="10"
     inkscape:pageopacity="0"
     inkscape:pageshadow="2"
     inkscape:window-width="1920"
     inkscape:window-height="1027"
     id="namedview250"
     showgrid="false"
     showguides="true"
     inkscape:guide-bbox="true"
     inkscape:zoom="1.1919192"
     inkscape:cx="309.14443"
     inkscape:cy="393.55248"
     inkscape:window-x="0"
     inkscape:window-y="27"
     inkscape:window-maximized="1"
     inkscape:current-layer="g80" /><g
     id="Layer_2"
     transform="translate(0,-180)" /><g
     id="Layer_1"
     transform="translate(0,-180)"><g
       id="g80"><text
         xml:space="preserve"
         style="font-style:normal;font-variant:normal;font-weight:normal;font-stretch:normal;font-size:15px;line-height:125%;font-family:'Museo Slab';-inkscape-font-specification:'Museo Slab';letter-spacing:0px;word-spacing:0px;fill:#000000;fill-opacity:1;stroke:none;stroke-width:1px;stroke-linecap:butt;stroke-linejoin:miter;stroke-opacity:1"
         x="101.51695"
         y="282.7373"
         id="text4382"
         sodipodi:linespacing="125%"><tspan
           sodipodi:role="line"
           id="tspan4384"
           x="101.51695"
           y="282.7373"
           style="font-style:normal;font-variant:normal;font-weight:normal;font-stretch:normal;font-size:30px;font-family:'Museo Slab';-inkscape-font-specification:'Museo Slab'">Upracme svet</tspan></text>
<text
         sodipodi:linespacing="125%"
         id="text4386"
         y="282.7373"
         x="422.00848"
         style="font-style:normal;font-variant:normal;font-weight:normal;font-stretch:normal;font-size:15px;line-height:125%;font-family:'Museo Slab';-inkscape-font-specification:'Museo Slab';letter-spacing:0px;word-spacing:0px;fill:#000000;fill-opacity:1;stroke:none;stroke-width:1px;stroke-linecap:butt;stroke-linejoin:miter;stroke-opacity:1"
         xml:space="preserve"><tspan
           style="font-style:normal;font-variant:normal;font-weight:normal;font-stretch:normal;font-size:30px;font-family:'Museo Slab';-inkscape-font-specification:'Museo Slab'"
           y="282.7373"
           x="422.00848"
           id="tspan4388"
           sodipodi:role="line">Upracme Slovensko</tspan></text>
<text
         sodipodi:linespacing="125%"
         id="text4413"
         y="475.7034"
         x="102.35593"
         style="font-style:normal;font-variant:normal;font-weight:normal;font-stretch:normal;font-size:15px;line-height:125%;font-family:'Museo Slab';-inkscape-font-specification:'Museo Slab';letter-spacing:0px;word-spacing:0px;fill:#ffffff;fill-opacity:1;stroke:none;stroke-width:1px;stroke-linecap:butt;stroke-linejoin:miter;stroke-opacity:1;"
         xml:space="preserve"><tspan
           style="font-style:normal;font-variant:normal;font-weight:normal;font-stretch:normal;font-size:30px;font-family:'Museo Slab';-inkscape-font-specification:'Museo Slab';fill:#ffffff;fill-opacity:1;"
           y="475.7034"
           x="102.35593"
           id="tspan4415"
           sodipodi:role="line">Upracme svet</tspan></text>
<text
         xml:space="preserve"
         style="font-style:normal;font-variant:normal;font-weight:normal;font-stretch:normal;font-size:15px;line-height:125%;font-family:'Museo Slab';-inkscape-font-specification:'Museo Slab';letter-spacing:0px;word-spacing:0px;fill:#ffffff;fill-opacity:1;stroke:none;stroke-width:1px;stroke-linecap:butt;stroke-linejoin:miter;stroke-opacity:1;"
         x="422.84747"
         y="475.7034"
         id="text4417"
         sodipodi:linespacing="125%"><tspan
           sodipodi:role="line"
           id="tspan4419"
           x="422.84747"
           y="475.7034"
           style="font-style:normal;font-variant:normal;font-weight:normal;font-stretch:normal;font-size:30px;font-family:'Museo Slab';-inkscape-font-specification:'Museo Slab';fill:#ffffff;fill-opacity:1;">Upracme Slovensko</tspan></text>
</g><g
       id="g6"
       transform="translate(73.830509,155.21186)"><circle
         cx="275.63501"
         cy="94.200996"
         r="17.065001"
         id="circle8"
         style="fill:#ffffff" /><circle
         cx="306.31799"
         cy="90.831001"
         r="17.065001"
         id="circle10"
         style="fill:#ffffff" /><circle
         cx="324.50699"
         cy="116.062"
         r="17.065001"
         id="circle12"
         style="fill:#ffffff" /><circle
         cx="312.362"
         cy="144.545"
         r="17.065001"
         id="circle14"
         style="fill:#ffffff" /><circle
         cx="281.82001"
         cy="148.959"
         r="17.065001"
         id="circle16"
         style="fill:#ffffff" /><circle
         cx="263.76099"
         cy="123.804"
         r="17.065001"
         id="circle18"
         style="fill:#ffffff" /><ellipse
         cx="294.25"
         cy="118.903"
         rx="21.375999"
         ry="22.129"
         id="ellipse20"
         style="fill:#ffffff" /></g><path
       d="m 371.79551,299.71986 c 0.154,-8.322 6.736,-14.71 14.972,-14.633 7.987,0.074 14.891,6.935 14.496,15.664 -0.346,7.67 -7.066,14.103 -14.981,13.968 -8.139,-0.138 -14.637,-6.865 -14.487,-14.999 z"
       id="path22"
       inkscape:connector-curvature="0"
       style="fill:#a9bd5b" /><path
       d="m 380.08751,260.96886 c -8.176,-0.012 -14.703,-6.65 -14.69,-14.938 0.014,-8.168 6.657,-14.672 14.967,-14.653 7.999,0.019 14.585,6.701 14.581,14.795 -0.003,8.202 -6.636,14.808 -14.858,14.796 z"
       id="path24"
       inkscape:connector-curvature="0"
       style="fill:#885d40" /><path
       d="m 352.35751,279.21886 c -0.023,8.235 -6.595,14.752 -14.871,14.744 -8.186,-0.007 -14.649,-6.63 -14.614,-14.974 0.034,-8.081 6.662,-14.673 14.705,-14.625 8.273,0.049 14.803,6.612 14.78,14.855 z"
       id="path26"
       inkscape:connector-curvature="0"
       style="fill:#158c46" /><path
       d="m 413.13551,271.42786 c 10e-4,8.269 -6.536,14.796 -14.813,14.79 -8.088,-0.006 -14.821,-6.77 -14.736,-14.803 0.087,-8.256 6.675,-14.802 14.882,-14.79 8.147,0.012 14.666,6.593 14.667,14.803 z"
       id="path28"
       inkscape:connector-curvature="0"
       style="fill:#ed902a" /><path
       d="m 366.82351,264.75686 c 0.966,1.517 1.95,2.876 2.73,4.344 0.648,1.219 1.211,1.144 2.01,0.226 0.264,-0.303 0.612,-0.533 0.921,-0.797 1.6,-1.366 1.6,-1.366 2.509,0.457 1.189,2.384 1.189,2.384 3.475,1.002 0.347,-0.21 0.699,-0.413 1.049,-0.619 1.595,-0.938 1.595,-0.938 2.28,0.726 2.327,5.66 0.83,12.399 -3.674,16.528 -4.605,4.223 -11.408,5.115 -16.878,2.213 -5.461,-2.897 -8.606,-8.976 -7.782,-15.041 0.217,-1.602 0.217,-1.602 1.646,-0.908 2.317,1.126 2.484,1.186 3.363,-1.246 0.878,-2.429 2.151,-3.807 4.894,-3.198 1.219,0.271 1.913,-0.301 2.319,-1.446 0.267,-0.747 0.718,-1.43 1.138,-2.241 z"
       id="path30"
       inkscape:connector-curvature="0"
       style="fill:#106db1" /><path
       d="m 355.70351,319.10886 c -8.154,0.035 -14.865,-6.638 -14.799,-14.677 0.007,-0.816 0.092,-1.224 1.08,-1.098 1.578,0.201 2.66,-0.553 3.325,-2.003 0.658,-1.434 1.279,-2.894 2.213,-4.183 1.516,-2.092 3.011,-2.517 5.41,-1.555 1.443,0.578 2.787,1.378 3.883,2.439 2.803,2.717 6.209,2.815 9.747,2.487 0.626,-0.058 1.275,-0.146 1.853,-0.374 1.017,-0.4 1.411,-0.236 1.672,0.944 2.037,9.193 -4.943,17.981 -14.384,18.02 z"
       id="path32"
       inkscape:connector-curvature="0"
       style="fill:#e0292b" /><path
       d="m 337.06251,249.52986 c 6.003,-0.047 11.446,-1.935 15.688,-6.625 0.679,-0.75 1.058,-0.714 1.663,-0.02 0.442,0.507 0.996,0.917 1.501,1.369 1.941,1.737 4.181,2.253 6.677,1.563 0.79,-0.219 1.18,-0.126 1.372,0.779 1.966,9.275 -5.407,18.135 -14.895,17.861 -7.522,-0.218 -13.761,-6.167 -14.34,-13.672 -0.103,-1.332 -0.103,-1.332 2.334,-1.255 z"
       id="path34"
       inkscape:connector-curvature="0"
       style="fill:#e45b2c" /><path
       d="m 360.48351,244.98986 c -1.44,0.124 -2.636,-0.585 -3.735,-1.497 -0.765,-0.634 -1.532,-1.278 -2.211,-1.999 -0.808,-0.859 -1.318,-0.83 -2.13,0.116 -4.342,5.062 -9.968,7.084 -16.541,6.744 -0.755,-0.039 -1.093,-0.168 -0.973,-1.098 0.788,-6.14 6.218,-11.506 12.56,-12.319 6.602,-0.846 13.253,2.897 15.552,8.71 0.281,0.711 0.151,0.95 -0.573,1.105 -0.625,0.135 -1.239,0.244 -1.949,0.238 z"
       id="path36"
       inkscape:connector-curvature="0"
       style="fill:#e45b2c" /><path
       d="m 363.71251,299.53486 c -2.012,0.156 -4.06,-0.51 -5.866,-2.122 -1.343,-1.198 -2.86,-2.205 -4.571,-2.867 -2.91,-1.126 -4.911,-0.525 -6.704,2.035 -0.886,1.264 -1.487,2.68 -2.171,4.052 -0.218,0.438 -0.468,0.899 -0.819,1.222 -0.626,0.575 -1.511,0.613 -2.175,0.29 -0.649,-0.316 -0.171,-1.053 -0.032,-1.576 1.604,-6.071 6.559,-10.32 12.832,-11.031 5.808,-0.658 11.692,2.523 14.496,7.838 0.719,1.362 0.671,1.485 -0.867,1.816 -1.24,0.269 -2.498,0.399 -4.123,0.343 z"
       id="path38"
       inkscape:connector-curvature="0"
       style="fill:#e0292b" /><path
       d="m 366.68951,262.47186 c -0.746,1.48 -1.418,2.739 -2.017,4.032 -0.287,0.618 -0.675,0.987 -1.348,0.821 -3.451,-0.855 -4.938,1.131 -5.907,3.976 -0.134,0.392 -0.228,1.204 -0.841,1.02 -0.841,-0.252 -1.608,-0.773 -2.363,-1.249 -0.081,-0.051 0.096,-0.586 0.216,-0.869 2.224,-5.257 6.18,-8.424 11.809,-9.156 5.52,-0.718 10.079,1.303 13.616,5.629 0.574,0.702 0.383,0.986 -0.317,1.41 -2.898,1.756 -2.884,1.78 -4.39,-1.244 -0.716,-1.438 -0.697,-1.414 -1.953,-0.414 -0.867,0.69 -1.693,2.143 -2.56,1.916 -0.811,-0.213 -1.29,-1.717 -1.902,-2.662 -0.652,-1.007 -1.289,-2.024 -2.043,-3.21 z"
       id="path40"
       inkscape:connector-curvature="0"
       style="fill:#106db1" /><path
       d="m 387.75751,310.40086 c -3.41,-0.081 -5.981,-1.549 -8.242,-3.687 -0.305,-0.289 -0.595,-0.708 -0.252,-1.06 0.447,-0.458 0.802,0.008 1.113,0.319 1.033,1.029 2.207,1.87 3.53,2.467 3.629,1.639 7.123,0.804 9.996,-2.366 0.91,-1.004 1.717,-2.09 2.411,-3.256 0.242,-0.406 0.513,-0.848 1.044,-0.524 0.512,0.312 0.145,0.717 -0.06,1.044 -2.002,3.198 -4.307,6.039 -8.268,6.88 -0.481,0.102 -0.976,0.141 -1.272,0.183 z"
       id="path42"
       inkscape:connector-curvature="0"
       style="fill:#fdfdfc" /><path
       d="m 389.47751,295.53086 c 0.023,-1.051 0.657,-1.564 1.615,-1.636 0.937,-0.071 1.736,0.802 1.672,1.748 -0.068,1.004 -0.654,1.58 -1.64,1.646 -0.931,0.062 -1.667,-0.772 -1.647,-1.758 z"
       id="path44"
       inkscape:connector-curvature="0"
       style="fill:#fcfdfa" /><path
       d="m 381.13251,299.94486 c -0.894,-0.106 -1.488,-0.653 -1.605,-1.625 -0.11,-0.917 0.707,-1.738 1.665,-1.752 0.909,-0.014 1.774,0.826 1.702,1.737 -0.079,0.997 -0.691,1.526 -1.762,1.64 z"
       id="path46"
       inkscape:connector-curvature="0"
       style="fill:#fcfdfb" /><path
       d="m 388.06551,237.74086 c 0.257,-0.005 0.568,0.059 0.608,0.466 0.05,0.497 -0.363,0.591 -0.702,0.667 -1.892,0.424 -3.79,0.825 -5.686,1.233 -1.878,0.404 -1.885,0.407 -1.039,2.068 1.31,2.572 2.605,5.152 3.963,7.699 0.399,0.748 0.319,1.054 -0.518,1.299 -1.338,0.391 -2.639,0.91 -3.963,1.353 -0.368,0.123 -0.846,0.34 -1.034,-0.22 -0.177,-0.526 0.268,-0.691 0.661,-0.831 0.934,-0.332 1.852,-0.723 2.808,-0.971 0.811,-0.21 0.863,-0.502 0.492,-1.204 -1.473,-2.792 -2.863,-5.628 -4.342,-8.417 -0.442,-0.833 -0.496,-1.192 0.603,-1.395 2.481,-0.459 4.936,-1.058 7.402,-1.599 0.221,-0.048 0.443,-0.088 0.747,-0.148 z"
       id="path48"
       inkscape:connector-curvature="0"
       style="fill:#fcfcfc" /><path
       d="m 388.18151,243.01986 c -0.066,0.89 -0.614,1.456 -1.613,1.519 -0.963,0.061 -1.731,-0.715 -1.695,-1.688 0.037,-1.02 0.625,-1.572 1.612,-1.644 0.956,-0.07 1.709,0.719 1.696,1.813 z"
       id="path50"
       inkscape:connector-curvature="0"
       style="fill:#fbfbfa" /><path
       d="m 375.53751,246.18886 c -0.974,0.035 -1.784,-0.698 -1.759,-1.647 0.027,-1.008 0.614,-1.583 1.579,-1.702 0.944,-0.116 1.702,0.66 1.716,1.658 0.013,0.976 -0.605,1.657 -1.536,1.691 z"
       id="path52"
       inkscape:connector-curvature="0"
       style="fill:#fcfbfa" /><path
       d="m 336.69551,290.84986 c -1.861,-0.126 -3.671,-0.433 -5.103,-1.794 -1.631,-1.55 -1.564,-3.603 0.145,-5.042 2.552,-2.149 7.572,-2.15 10.099,-0.002 1.686,1.433 1.757,3.544 0.134,5.058 -1.479,1.378 -3.335,1.69 -5.275,1.78 z"
       id="path54"
       inkscape:connector-curvature="0"
       style="fill:#fcfdfc" /><path
       d="m 332.60951,270.16286 c 0.957,0.011 1.744,0.805 1.65,1.75 -0.098,0.982 -0.666,1.558 -1.683,1.578 -0.955,0.019 -1.7,-0.789 -1.654,-1.746 0.044,-0.9 0.782,-1.593 1.687,-1.582 z"
       id="path56"
       inkscape:connector-curvature="0"
       style="fill:#fafcfa" /><path
       d="m 344.21751,272.42786 c 0.023,0.987 -0.696,1.737 -1.679,1.697 -1.006,-0.041 -1.581,-0.572 -1.614,-1.604 -0.032,-0.984 0.706,-1.743 1.658,-1.732 0.892,0.011 1.614,0.734 1.635,1.639 z"
       id="path58"
       inkscape:connector-curvature="0"
       style="fill:#fafcfb" /><path
       d="m 400.49051,269.00186 c 0.274,-0.697 -0.095,-1.096 -0.701,-1.361 -0.625,-0.274 -1.226,-0.26 -1.785,0.178 -0.566,0.444 -0.284,0.941 -0.142,1.472 0.811,3.047 -0.879,5.862 -3.884,6.516 -2.717,0.591 -5.527,-1.339 -6.028,-4.143 -0.518,-2.895 1.492,-5.563 4.54,-5.975 1.264,-0.171 2.432,0.193 3.443,0.944 0.585,0.435 1.023,0.722 1.72,0.111 0.606,-0.532 1.529,-0.608 2.188,-0.232 1.02,0.582 1.432,0.106 2.048,-0.609 1.504,-1.746 4.013,-2.123 6.068,-1.05 1.956,1.021 3.085,3.359 2.646,5.479 -0.484,2.336 -2.413,4.039 -4.725,4.173 -2.237,0.129 -4.289,-1.232 -5.063,-3.353 -0.253,-0.689 -0.347,-1.399 -0.325,-2.15 z"
       id="path60"
       inkscape:connector-curvature="0"
       style="fill:#fdfdfc" /><path
       d="m 372.14551,273.93186 c 0.091,-0.838 0.657,-1.415 1.63,-1.5 0.92,-0.081 1.686,0.762 1.67,1.728 -0.017,1.056 -0.645,1.567 -1.604,1.651 -0.936,0.081 -1.721,-0.771 -1.696,-1.879 z"
       id="path62"
       inkscape:connector-curvature="0"
       style="fill:#f8fbfc" /><path
       d="m 364.06551,276.75186 c -1.209,0.024 -2.004,-0.709 -1.94,-1.662 0.066,-0.982 0.61,-1.576 1.628,-1.628 0.952,-0.048 1.766,0.732 1.708,1.679 -0.06,0.983 -0.589,1.57 -1.396,1.611 z"
       id="path64"
       inkscape:connector-curvature="0"
       style="fill:#fbfcfc" /><path
       d="m 351.21751,305.99386 c -1.092,-0.036 -1.816,-0.819 -1.747,-1.79 0.074,-1.029 0.697,-1.535 1.682,-1.562 0.927,-0.025 1.772,0.875 1.643,1.765 -0.137,0.951 -0.704,1.527 -1.578,1.587 z"
       id="path66"
       inkscape:connector-curvature="0"
       style="fill:#fdfafa" /><path
       d="m 360.52451,304.26186 c 1.125,0.145 1.682,0.727 1.611,1.822 -0.068,1.044 -0.705,1.522 -1.689,1.523 -0.958,0 -1.701,-0.848 -1.59,-1.794 0.117,-1 0.756,-1.474 1.668,-1.551 z"
       id="path68"
       inkscape:connector-curvature="0"
       style="fill:#fdfbfa" /><path
       d="m 345.91851,252.07686 c -0.047,1.029 -0.593,1.623 -1.569,1.742 -0.881,0.108 -1.772,-0.767 -1.787,-1.663 -0.015,-0.892 0.84,-1.788 1.727,-1.714 0.98,0.082 1.547,0.653 1.629,1.635 z"
       id="path70"
       inkscape:connector-curvature="0"
       style="fill:#fdfbfa" /><path
       d="m 354.06551,250.50786 c -1.126,-0.016 -1.793,-0.728 -1.739,-1.746 0.056,-1.039 0.679,-1.538 1.655,-1.583 0.942,-0.044 1.693,0.785 1.63,1.753 -0.066,1.026 -0.683,1.504 -1.546,1.576 z"
       id="path72"
       inkscape:connector-curvature="0"
       style="fill:#fdfbfa" /><path
       d="m 336.90751,283.48686 c 1.511,0.064 3.001,0.36 4.219,1.413 1.265,1.094 1.242,2.34 -0.013,3.446 -2.096,1.846 -6.597,1.839 -8.69,-0.013 -1.22,-1.08 -1.233,-2.396 0.025,-3.451 1.267,-1.064 2.802,-1.362 4.459,-1.395 z"
       id="path74"
       inkscape:connector-curvature="0"
       style="fill:#158d46" /><path
       d="m 396.97451,270.70586 c 0.017,2.237 -1.783,4.091 -3.986,4.105 -2.109,0.013 -3.979,-1.828 -4.013,-3.951 -0.034,-2.176 1.836,-4.102 4.003,-4.124 2.102,-0.021 3.979,1.844 3.996,3.97 z"
       id="path76"
       inkscape:connector-curvature="0"
       style="fill:#ed912a" /><path
       d="m 405.65151,265.35486 c 2.094,0.025 3.943,1.906 3.951,4.018 0.007,2.153 -1.943,4.089 -4.072,4.041 -2.221,-0.05 -3.957,-1.901 -3.899,-4.158 0.057,-2.179 1.859,-3.927 4.02,-3.901 z"
       id="path78"
       inkscape:connector-curvature="0"
       style="fill:#ed912a" /><g
       id="g128"
       transform="translate(73.830509,155.21186)"><circle
         cx="275.63501"
         cy="280.86801"
         r="17.065001"
         id="circle130"
         style="fill:#ffffff" /><circle
         cx="306.31799"
         cy="277.49701"
         r="17.065001"
         id="circle132"
         style="fill:#ffffff" /><circle
         cx="324.50699"
         cy="302.729"
         r="17.065001"
         id="circle134"
         style="fill:#ffffff" /><circle
         cx="312.362"
         cy="331.211"
         r="17.065001"
         id="circle136"
         style="fill:#ffffff" /><circle
         cx="281.82001"
         cy="335.62601"
         r="17.065001"
         id="circle138"
         style="fill:#ffffff" /><circle
         cx="263.76099"
         cy="310.47101"
         r="17.065001"
         id="circle140"
         style="fill:#ffffff" /><ellipse
         cx="294.25"
         cy="305.57001"
         rx="21.375999"
         ry="22.129"
         id="ellipse142"
         style="fill:#ffffff" /></g><path
       d="m 371.79551,486.38686 c 0.154,-8.322 6.736,-14.71 14.972,-14.633 7.987,0.074 14.891,6.935 14.496,15.664 -0.346,7.671 -7.066,14.103 -14.981,13.968 -8.139,-0.138 -14.637,-6.865 -14.487,-14.999 z"
       id="path144"
       inkscape:connector-curvature="0"
       style="fill:#a9bd5b" /><path
       d="m 380.08751,447.63586 c -8.176,-0.012 -14.703,-6.65 -14.69,-14.938 0.014,-8.168 6.657,-14.672 14.967,-14.653 7.999,0.019 14.585,6.701 14.581,14.794 -0.003,8.203 -6.636,14.808 -14.858,14.797 z"
       id="path146"
       inkscape:connector-curvature="0"
       style="fill:#885d40" /><path
       d="m 352.35751,465.88586 c -0.023,8.235 -6.595,14.752 -14.871,14.745 -8.186,-0.007 -14.649,-6.63 -14.614,-14.974 0.034,-8.081 6.662,-14.673 14.705,-14.625 8.273,0.048 14.803,6.61 14.78,14.854 z"
       id="path148"
       inkscape:connector-curvature="0"
       style="fill:#158c46" /><path
       d="m 413.13651,458.09486 c 0.001,8.269 -6.536,14.796 -14.813,14.79 -8.088,-0.006 -14.821,-6.77 -14.736,-14.803 0.087,-8.256 6.675,-14.802 14.882,-14.79 8.146,0.011 14.666,6.592 14.667,14.803 z"
       id="path150"
       inkscape:connector-curvature="0"
       style="fill:#ed902a" /><path
       d="m 366.82351,451.42386 c 0.966,1.517 1.95,2.876 2.73,4.344 0.648,1.219 1.211,1.144 2.01,0.226 0.264,-0.303 0.612,-0.533 0.921,-0.797 1.6,-1.366 1.6,-1.366 2.509,0.457 1.189,2.384 1.189,2.384 3.475,1.002 0.347,-0.21 0.699,-0.413 1.049,-0.619 1.595,-0.938 1.595,-0.938 2.28,0.726 2.327,5.66 0.83,12.399 -3.674,16.528 -4.606,4.223 -11.408,5.115 -16.878,2.213 -5.461,-2.897 -8.606,-8.976 -7.782,-15.041 0.217,-1.602 0.217,-1.602 1.646,-0.908 2.317,1.126 2.484,1.186 3.363,-1.246 0.878,-2.429 2.151,-3.807 4.894,-3.198 1.219,0.271 1.913,-0.301 2.319,-1.446 0.267,-0.748 0.718,-1.43 1.138,-2.241 z"
       id="path152"
       inkscape:connector-curvature="0"
       style="fill:#106db1" /><path
       d="m 355.70451,505.77586 c -8.154,0.035 -14.865,-6.638 -14.799,-14.677 0.007,-0.816 0.092,-1.224 1.08,-1.098 1.578,0.201 2.66,-0.553 3.325,-2.003 0.658,-1.434 1.279,-2.894 2.213,-4.183 1.516,-2.092 3.011,-2.517 5.41,-1.555 1.443,0.578 2.788,1.378 3.883,2.439 2.803,2.717 6.209,2.815 9.747,2.487 0.626,-0.058 1.275,-0.146 1.853,-0.374 1.017,-0.4 1.411,-0.236 1.672,0.944 2.036,9.192 -4.944,17.98 -14.384,18.02 z"
       id="path154"
       inkscape:connector-curvature="0"
       style="fill:#e0292b" /><path
       d="m 337.06251,436.19586 c 6.003,-0.047 11.446,-1.935 15.688,-6.625 0.679,-0.75 1.058,-0.714 1.663,-0.02 0.442,0.507 0.996,0.917 1.501,1.369 1.941,1.737 4.181,2.253 6.677,1.563 0.79,-0.219 1.18,-0.126 1.372,0.779 1.966,9.275 -5.407,18.135 -14.895,17.861 -7.522,-0.218 -13.761,-6.167 -14.34,-13.672 -0.103,-1.332 -0.103,-1.332 2.334,-1.255 z"
       id="path156"
       inkscape:connector-curvature="0"
       style="fill:#e45b2c" /><path
       d="m 360.48351,431.65686 c -1.44,0.124 -2.636,-0.585 -3.735,-1.497 -0.765,-0.634 -1.532,-1.278 -2.211,-1.999 -0.808,-0.859 -1.318,-0.83 -2.13,0.116 -4.342,5.062 -9.968,7.084 -16.541,6.744 -0.755,-0.039 -1.093,-0.168 -0.973,-1.098 0.788,-6.14 6.218,-11.506 12.56,-12.319 6.602,-0.846 13.253,2.897 15.552,8.71 0.281,0.711 0.151,0.95 -0.573,1.105 -0.624,0.135 -1.239,0.244 -1.949,0.238 z"
       id="path158"
       inkscape:connector-curvature="0"
       style="fill:#e45b2c" /><path
       d="m 363.71251,486.20186 c -2.012,0.156 -4.06,-0.51 -5.866,-2.122 -1.343,-1.198 -2.86,-2.205 -4.571,-2.867 -2.91,-1.126 -4.911,-0.525 -6.704,2.035 -0.886,1.264 -1.487,2.68 -2.171,4.052 -0.218,0.438 -0.468,0.899 -0.819,1.222 -0.626,0.575 -1.511,0.613 -2.175,0.29 -0.649,-0.316 -0.17,-1.053 -0.032,-1.576 1.604,-6.071 6.559,-10.32 12.832,-11.031 5.808,-0.658 11.692,2.523 14.496,7.838 0.719,1.362 0.671,1.485 -0.867,1.816 -1.24,0.268 -2.498,0.399 -4.123,0.343 z"
       id="path160"
       inkscape:connector-curvature="0"
       style="fill:#e0292b" /><path
       d="m 366.68951,449.13786 c -0.746,1.48 -1.418,2.739 -2.017,4.032 -0.287,0.618 -0.675,0.987 -1.348,0.821 -3.451,-0.855 -4.938,1.131 -5.907,3.976 -0.134,0.392 -0.228,1.204 -0.841,1.02 -0.841,-0.252 -1.608,-0.773 -2.363,-1.249 -0.081,-0.051 0.096,-0.586 0.216,-0.869 2.224,-5.257 6.18,-8.424 11.809,-9.156 5.52,-0.718 10.079,1.303 13.616,5.629 0.574,0.702 0.383,0.986 -0.317,1.41 -2.898,1.756 -2.884,1.78 -4.39,-1.244 -0.716,-1.438 -0.697,-1.414 -1.953,-0.414 -0.867,0.69 -1.693,2.143 -2.56,1.916 -0.811,-0.213 -1.29,-1.717 -1.902,-2.662 -0.652,-1.006 -1.289,-2.023 -2.043,-3.21 z"
       id="path162"
       inkscape:connector-curvature="0"
       style="fill:#106db1" /><path
       d="m 387.75751,497.06786 c -3.41,-0.081 -5.981,-1.549 -8.242,-3.687 -0.305,-0.289 -0.595,-0.708 -0.252,-1.06 0.447,-0.458 0.802,0.008 1.113,0.319 1.033,1.029 2.207,1.87 3.53,2.467 3.629,1.639 7.123,0.804 9.996,-2.366 0.91,-1.004 1.717,-2.09 2.411,-3.256 0.242,-0.406 0.513,-0.848 1.044,-0.524 0.512,0.312 0.145,0.717 -0.06,1.044 -2.002,3.198 -4.307,6.039 -8.268,6.88 -0.481,0.102 -0.976,0.141 -1.272,0.183 z"
       id="path164"
       inkscape:connector-curvature="0"
       style="fill:#fdfdfc" /><path
       d="m 389.47751,482.19786 c 0.023,-1.051 0.657,-1.564 1.615,-1.636 0.937,-0.071 1.736,0.802 1.672,1.748 -0.068,1.004 -0.654,1.58 -1.64,1.646 -0.931,0.062 -1.667,-0.773 -1.647,-1.758 z"
       id="path166"
       inkscape:connector-curvature="0"
       style="fill:#fcfdfa" /><path
       d="m 381.13251,486.61186 c -0.894,-0.106 -1.488,-0.653 -1.605,-1.625 -0.11,-0.917 0.707,-1.738 1.665,-1.752 0.909,-0.014 1.774,0.826 1.702,1.737 -0.079,0.997 -0.691,1.526 -1.762,1.64 z"
       id="path168"
       inkscape:connector-curvature="0"
       style="fill:#fcfdfb" /><path
       d="m 388.06551,424.40786 c 0.257,-0.005 0.568,0.059 0.608,0.466 0.05,0.497 -0.363,0.591 -0.702,0.667 -1.892,0.424 -3.79,0.825 -5.686,1.233 -1.878,0.404 -1.885,0.407 -1.039,2.068 1.31,2.572 2.605,5.152 3.963,7.699 0.399,0.748 0.319,1.054 -0.518,1.299 -1.338,0.391 -2.639,0.91 -3.963,1.353 -0.368,0.123 -0.846,0.34 -1.034,-0.22 -0.177,-0.526 0.268,-0.691 0.661,-0.831 0.934,-0.332 1.852,-0.723 2.808,-0.971 0.811,-0.21 0.863,-0.502 0.492,-1.204 -1.473,-2.792 -2.863,-5.628 -4.343,-8.417 -0.442,-0.833 -0.496,-1.192 0.603,-1.395 2.481,-0.459 4.936,-1.058 7.402,-1.599 0.222,-0.048 0.444,-0.088 0.748,-0.148 z"
       id="path170"
       inkscape:connector-curvature="0"
       style="fill:#fcfcfc" /><path
       d="m 388.18151,429.68686 c -0.066,0.89 -0.614,1.456 -1.613,1.519 -0.963,0.061 -1.731,-0.715 -1.695,-1.688 0.037,-1.02 0.625,-1.572 1.612,-1.644 0.956,-0.07 1.709,0.718 1.696,1.813 z"
       id="path172"
       inkscape:connector-curvature="0"
       style="fill:#fbfbfa" /><path
       d="m 375.53751,432.85486 c -0.974,0.035 -1.784,-0.698 -1.759,-1.647 0.027,-1.008 0.614,-1.583 1.579,-1.702 0.944,-0.116 1.702,0.66 1.716,1.658 0.013,0.977 -0.605,1.658 -1.536,1.691 z"
       id="path174"
       inkscape:connector-curvature="0"
       style="fill:#fcfbfa" /><path
       d="m 336.69551,477.51686 c -1.861,-0.126 -3.671,-0.433 -5.104,-1.794 -1.631,-1.55 -1.564,-3.603 0.145,-5.042 2.552,-2.149 7.572,-2.15 10.099,-0.002 1.686,1.433 1.757,3.544 0.134,5.058 -1.478,1.377 -3.334,1.69 -5.274,1.78 z"
       id="path176"
       inkscape:connector-curvature="0"
       style="fill:#fcfdfc" /><path
       d="m 332.60951,456.82886 c 0.957,0.011 1.744,0.805 1.65,1.75 -0.098,0.982 -0.666,1.558 -1.683,1.578 -0.955,0.019 -1.7,-0.789 -1.654,-1.746 0.044,-0.9 0.782,-1.592 1.687,-1.582 z"
       id="path178"
       inkscape:connector-curvature="0"
       style="fill:#fafcfa" /><path
       d="m 344.21751,459.09386 c 0.023,0.987 -0.696,1.737 -1.679,1.697 -1.006,-0.041 -1.581,-0.572 -1.614,-1.604 -0.032,-0.984 0.706,-1.743 1.658,-1.732 0.892,0.012 1.614,0.735 1.635,1.639 z"
       id="path180"
       inkscape:connector-curvature="0"
       style="fill:#fafcfb" /><path
       d="m 400.49151,455.66886 c 0.274,-0.697 -0.095,-1.096 -0.701,-1.361 -0.625,-0.274 -1.226,-0.26 -1.785,0.178 -0.566,0.444 -0.284,0.941 -0.142,1.472 0.811,3.047 -0.879,5.862 -3.884,6.516 -2.717,0.591 -5.527,-1.339 -6.028,-4.143 -0.518,-2.895 1.492,-5.563 4.54,-5.975 1.264,-0.171 2.432,0.193 3.443,0.944 0.585,0.435 1.023,0.722 1.72,0.111 0.606,-0.532 1.529,-0.608 2.188,-0.232 1.02,0.582 1.432,0.106 2.048,-0.609 1.504,-1.746 4.013,-2.123 6.068,-1.05 1.956,1.021 3.085,3.359 2.646,5.479 -0.484,2.336 -2.413,4.039 -4.725,4.173 -2.237,0.129 -4.289,-1.232 -5.064,-3.353 -0.253,-0.689 -0.347,-1.399 -0.324,-2.15 z"
       id="path182"
       inkscape:connector-curvature="0"
       style="fill:#fdfdfc" /><path
       d="m 372.14551,460.59886 c 0.091,-0.838 0.657,-1.415 1.63,-1.5 0.92,-0.081 1.686,0.762 1.67,1.728 -0.017,1.056 -0.645,1.567 -1.604,1.651 -0.935,0.08 -1.721,-0.771 -1.696,-1.879 z"
       id="path184"
       inkscape:connector-curvature="0"
       style="fill:#f8fbfc" /><path
       d="m 364.06551,463.41886 c -1.209,0.024 -2.004,-0.709 -1.94,-1.662 0.066,-0.982 0.61,-1.576 1.628,-1.628 0.952,-0.048 1.766,0.732 1.708,1.679 -0.06,0.983 -0.589,1.569 -1.396,1.611 z"
       id="path186"
       inkscape:connector-curvature="0"
       style="fill:#fbfcfc" /><path
       d="m 351.21751,492.66086 c -1.092,-0.036 -1.816,-0.819 -1.747,-1.79 0.074,-1.029 0.697,-1.535 1.682,-1.562 0.927,-0.025 1.772,0.875 1.643,1.765 -0.137,0.951 -0.704,1.527 -1.578,1.587 z"
       id="path188"
       inkscape:connector-curvature="0"
       style="fill:#fdfafa" /><path
       d="m 360.52451,490.92886 c 1.125,0.145 1.682,0.727 1.611,1.822 -0.068,1.044 -0.705,1.522 -1.689,1.523 -0.958,0 -1.701,-0.848 -1.59,-1.794 0.117,-1.001 0.756,-1.475 1.668,-1.551 z"
       id="path190"
       inkscape:connector-curvature="0"
       style="fill:#fdfbfa" /><path
       d="m 345.91851,438.74386 c -0.047,1.029 -0.593,1.622 -1.569,1.742 -0.881,0.108 -1.772,-0.767 -1.787,-1.663 -0.015,-0.893 0.84,-1.788 1.727,-1.714 0.98,0.081 1.547,0.653 1.629,1.635 z"
       id="path192"
       inkscape:connector-curvature="0"
       style="fill:#fdfbfa" /><path
       d="m 354.06551,437.17486 c -1.126,-0.016 -1.793,-0.728 -1.739,-1.746 0.056,-1.039 0.679,-1.538 1.655,-1.583 0.942,-0.044 1.693,0.785 1.63,1.753 -0.066,1.026 -0.682,1.504 -1.546,1.576 z"
       id="path194"
       inkscape:connector-curvature="0"
       style="fill:#fdfbfa" /><path
       d="m 336.90751,470.15386 c 1.511,0.064 3.001,0.36 4.219,1.413 1.265,1.094 1.242,2.34 -0.013,3.446 -2.096,1.846 -6.597,1.839 -8.69,-0.013 -1.22,-1.08 -1.233,-2.396 0.025,-3.451 1.267,-1.064 2.802,-1.363 4.459,-1.395 z"
       id="path196"
       inkscape:connector-curvature="0"
       style="fill:#158d46" /><path
       d="m 396.97451,457.37286 c 0.017,2.237 -1.783,4.091 -3.986,4.105 -2.109,0.013 -3.979,-1.828 -4.013,-3.951 -0.034,-2.176 1.836,-4.102 4.003,-4.124 2.102,-0.021 3.979,1.844 3.996,3.97 z"
       id="path198"
       inkscape:connector-curvature="0"
       style="fill:#ed912a" /><path
       d="m 405.65151,452.02186 c 2.094,0.025 3.943,1.906 3.951,4.018 0.007,2.153 -1.943,4.089 -4.072,4.041 -2.221,-0.05 -3.957,-1.901 -3.899,-4.158 0.057,-2.179 1.859,-3.927 4.02,-3.901 z"
       id="path200"
       inkscape:connector-curvature="0"
       style="fill:#ed912a" /></g></svg>